<svg width="25" height="25" viewBox="0 0 25 25" fill="none" xmlns="http://www.w3.org/2000/svg">
<path d="M3.90625 10.9375L5.75098 6.6333C6.05127 5.93262 6.81641 5.46875 7.67139 5.46875H17.3286C18.1836 5.46875 18.9487 5.93262 19.249 6.6333L21.0938 10.9375M3.90625 10.9375H21.0938M3.90625 10.9375V17.9688M21.0938 10.9375V17.9688M21.0938 17.9688H3.90625M21.0938 17.9688V19.5312H19.5312V17.9688M3.90625 17.9688V19.5312H5.46875V17.9688" stroke="#375A76" stroke-width="1.5625" stroke-linecap="round" stroke-linejoin="round"/>
<path d="M7.03125 14.8438C7.46272 14.8438 7.8125 14.494 7.8125 14.0625C7.8125 13.631 7.46272 13.2812 7.03125 13.2812C6.59978 13.2812 6.25 13.631 6.25 14.0625C6.25 14.494 6.59978 14.8438 7.03125 14.8438Z" stroke="#375A76" stroke-width="1.5625" stroke-linecap="round" stroke-linejoin="round"/>
<path d="M17.9688 14.8438C18.4002 14.8438 18.75 14.494 18.75 14.0625C18.75 13.631 18.4002 13.2812 17.9688 13.2812C17.5373 13.2812 17.1875 13.631 17.1875 14.0625C17.1875 14.494 17.5373 14.8438 17.9688 14.8438Z" stroke="#375A76" stroke-width="1.5625" stroke-linecap="round" stroke-linejoin="round"/>
</svg>
