<svg width="25" height="25" viewBox="0 0 25 25" fill="none" xmlns="http://www.w3.org/2000/svg">
<path d="M19.5312 15.625C19.5312 19.9399 16.8149 22.6563 12.5 22.6563C8.18506 22.6563 5.46875 19.9399 5.46875 15.625C5.46875 10.9946 10.5093 4.74366 12.0552 2.93555C12.1102 2.87131 12.1784 2.81974 12.2553 2.78438C12.3321 2.74902 12.4157 2.73071 12.5002 2.73071C12.5848 2.73071 12.6684 2.74902 12.7452 2.78438C12.822 2.81974 12.8903 2.87131 12.9453 2.93555C14.4907 4.74366 19.5312 10.9946 19.5312 15.625Z" stroke="#375A76" stroke-width="1.5625" stroke-miterlimit="10"/>
<path d="M16.7969 16.0156C16.7969 16.948 16.4265 17.8422 15.7672 18.5015C15.1079 19.1609 14.2137 19.5312 13.2812 19.5312" stroke="#375A76" stroke-width="1.5625" stroke-linecap="round" stroke-linejoin="round"/>
</svg>
